<?xml version="1.0" encoding="utf-8"?>
<!-- Generator: Adobe Illustrator 24.3.0, SVG Export Plug-In . SVG Version: 6.00 Build 0)  -->
<svg version="1.1" id="Layer_1" xmlns="http://www.w3.org/2000/svg" xmlns:xlink="http://www.w3.org/1999/xlink" x="0px" y="0px"
	 viewBox="0 0 350 100" style="enable-background:new 0 0 350 100;" xml:space="preserve">
<style type="text/css">
	.st0{fill:#FFFFFF;}
	.st1{fill:#5077BB;}
</style>
<g>
	<g>
		<g>
			<path class="st0" d="M131.7,90.7h-5.5l-0.8-5.2h-7.8l-2.4,5.2h-5.9l12.3-24.3h5.7L131.7,90.7z M119.1,82h5.8l-1.4-9.6h-0.1
				L119.1,82z"/>
			<path class="st0" d="M150,90.7h-4.9l0.3-1.8c-0.8,0.7-1.7,1.2-2.7,1.5c-1,0.4-1.9,0.5-2.8,0.5c-1.5,0-2.7-0.4-3.5-1.2
				c-0.8-0.8-1.3-2-1.3-3.5c0-0.3,0-0.6,0-0.9c0-0.3,0.1-0.6,0.1-0.9l0.3-1.9l1.1-7.7h4.9l-1.2,8.2c-0.1,0.5-0.2,1-0.2,1.5
				c0,0.5-0.1,0.9-0.1,1.2c0,1.2,0.5,1.8,1.4,1.8c1.4,0,2.9-0.8,4.4-2.4l1.6-10.4h4.9L150,90.7z"/>
			<path class="st0" d="M163.2,74.7h3.7l-0.6,3.5h-3.7l-0.8,4l-0.3,1.5c-0.1,0.5-0.1,0.9-0.1,1.3c0,1.1,0.5,1.7,1.5,1.7
				c0.8,0,1.8-0.4,3-1.1v4.3c-0.8,0.4-1.6,0.6-2.2,0.8c-0.6,0.2-1.3,0.2-2,0.2c-1.6,0-2.9-0.5-3.8-1.4c-0.9-0.9-1.4-2.2-1.4-3.7
				c0-0.2,0-0.5,0-0.7c0-0.2,0-0.5,0.1-0.7c0-0.3,0.1-0.6,0.2-1c0.1-0.4,0.2-0.9,0.3-1.5l0.7-3.7h-3.4l0.6-3.5h3.4l0.6-3.3h5
				L163.2,74.7z"/>
			<path class="st0" d="M185.7,85.5c-0.5,1.1-1.2,2.1-2,2.9c-0.8,0.8-1.9,1.4-3,1.9c-1.2,0.5-2.4,0.7-3.8,0.7
				c-1.2,0-2.3-0.2-3.3-0.6s-1.9-0.9-2.7-1.6c-0.8-0.7-1.4-1.5-1.8-2.4c-0.4-0.9-0.6-1.9-0.6-3c0-1.2,0.3-2.4,0.8-3.4
				c0.5-1.1,1.2-2,2.1-2.8c0.9-0.8,1.9-1.4,3.1-1.9c1.2-0.5,2.4-0.7,3.8-0.7c1.2,0,2.3,0.2,3.3,0.6s1.9,0.9,2.6,1.6
				c0.7,0.7,1.3,1.5,1.7,2.4s0.6,1.9,0.6,3C186.4,83.2,186.2,84.4,185.7,85.5z M180.4,79.4c-0.6-0.6-1.4-1-2.5-1
				c-0.6,0-1.2,0.1-1.7,0.4c-0.5,0.3-1,0.6-1.4,1.1c-0.4,0.5-0.7,1-0.9,1.7c-0.2,0.6-0.3,1.3-0.3,2c0,1,0.3,1.8,1,2.5
				c0.7,0.7,1.5,1,2.4,1c0.6,0,1.2-0.1,1.7-0.4c0.5-0.3,1-0.7,1.4-1.1c0.4-0.5,0.7-1,0.9-1.7c0.2-0.6,0.3-1.3,0.3-2
				C181.3,80.9,181,80,180.4,79.4z"/>
			<path class="st0" d="M200.8,79.6l-0.5-0.2c-1-0.4-1.9-0.7-2.5-0.9s-1.2-0.3-1.7-0.3c-0.9,0-1.3,0.2-1.3,0.7c0,0.2,0,0.3,0.1,0.4
				s0.1,0.3,0.3,0.4c0.2,0.2,0.4,0.4,0.8,0.6s0.8,0.6,1.4,1c1.1,0.8,1.9,1.6,2.4,2.3c0.5,0.7,0.7,1.4,0.7,2.3c0,0.7-0.2,1.4-0.5,2
				c-0.3,0.6-0.7,1.1-1.3,1.6c-0.6,0.4-1.2,0.8-2,1c-0.8,0.2-1.6,0.4-2.5,0.4c-1,0-2-0.1-2.8-0.3s-1.9-0.6-3-1.1l0.7-3.5
				c2,0.9,3.5,1.3,4.7,1.3c0.5,0,0.9-0.1,1.2-0.2c0.3-0.2,0.4-0.4,0.4-0.7c0-0.4-0.4-0.9-1.2-1.5l-1.4-1c-1.1-0.8-1.9-1.5-2.4-2.2
				c-0.5-0.7-0.7-1.4-0.7-2.3c0-0.7,0.2-1.4,0.5-2c0.3-0.6,0.8-1.1,1.3-1.6c0.6-0.4,1.2-0.8,2-1c0.8-0.2,1.6-0.4,2.5-0.4
				s1.7,0.1,2.6,0.3c0.8,0.2,1.7,0.6,2.7,1.1L200.8,79.6z"/>
			<path class="st0" d="M210,76.5c0.8-0.7,1.7-1.2,2.7-1.6c1-0.4,1.9-0.5,2.9-0.5c1.5,0,2.6,0.4,3.4,1.2c0.8,0.8,1.2,2,1.2,3.5
				c0,0.3,0,0.6,0,0.9c0,0.3-0.1,0.7-0.1,1l-0.3,2l-1.1,7.6h-5l1.3-8.8l0.2-1.3c0-0.1,0-0.3,0-0.4s0-0.3,0-0.4
				c0-1.1-0.5-1.6-1.4-1.6c-1.2,0-2.7,0.7-4.3,2.2l-1.6,10.4h-5l3.6-24h5L210,76.5z"/>
			<path class="st0" d="M240.7,85.5c-0.5,1.1-1.2,2.1-2,2.9c-0.8,0.8-1.9,1.4-3,1.9c-1.2,0.5-2.4,0.7-3.8,0.7
				c-1.2,0-2.3-0.2-3.3-0.6c-1-0.4-1.9-0.9-2.7-1.6c-0.8-0.7-1.4-1.5-1.8-2.4c-0.4-0.9-0.6-1.9-0.6-3c0-1.2,0.3-2.4,0.8-3.4
				c0.5-1.1,1.2-2,2.1-2.8c0.9-0.8,1.9-1.4,3.1-1.9c1.2-0.5,2.4-0.7,3.7-0.7c1.2,0,2.3,0.2,3.3,0.6s1.9,0.9,2.6,1.6
				c0.7,0.7,1.3,1.5,1.7,2.4c0.4,0.9,0.6,1.9,0.6,3C241.5,83.2,241.2,84.4,240.7,85.5z M235.4,79.4c-0.6-0.6-1.4-1-2.5-1
				c-0.6,0-1.2,0.1-1.7,0.4c-0.5,0.3-1,0.6-1.4,1.1c-0.4,0.5-0.7,1-0.9,1.7c-0.2,0.6-0.3,1.3-0.3,2c0,1,0.3,1.8,1,2.5
				c0.7,0.7,1.5,1,2.4,1c0.6,0,1.2-0.1,1.7-0.4c0.5-0.3,1-0.7,1.4-1.1c0.4-0.5,0.7-1,0.9-1.7c0.2-0.6,0.4-1.3,0.4-2
				C236.3,80.9,236,80,235.4,79.4z"/>
			<path class="st0" d="M252.7,74.7c0.5-0.1,1.1-0.2,1.6-0.2c0.3,0,0.5,0,0.8-0.1c0.2,0,0.5,0,0.7,0c1.1,0,2.1,0.2,3,0.5
				c0.9,0.3,1.7,0.8,2.3,1.4s1.1,1.3,1.5,2.2c0.4,0.9,0.5,1.8,0.5,2.8c0,1.3-0.3,2.6-0.8,3.8c-0.5,1.2-1.3,2.2-2.2,3
				c-0.9,0.9-2.1,1.5-3.3,2c-1.3,0.5-2.6,0.7-4.1,0.7c-0.5,0-0.9,0-1.1-0.1c-0.3,0-0.7-0.1-1.1-0.2l-1.2,8.1h-4.9l2.7-18.1
				c-0.5,0.4-0.9,0.7-1.3,1.1c-0.4,0.4-0.8,0.7-1,1l-0.8,1c-0.1,0.2-0.3,0.3-0.6,0.3c-0.2,0-0.3-0.1-0.3-0.4c0-0.4,0.3-1.1,0.8-2
				c0.2-0.3,0.4-0.6,0.6-0.9s0.4-0.6,0.6-0.8c0.3-0.4,0.7-0.8,1.1-1.1c0.4-0.4,0.9-0.8,1.5-1.3l0.9-5.8h4.9L252.7,74.7z M250.9,86.8
				c0.3,0.1,0.6,0.1,0.8,0.1c0.2,0,0.4,0,0.7,0c1.7,0,3-0.5,4-1.5c1-1,1.5-2.4,1.5-4.1c0-1.1-0.3-2-0.9-2.6s-1.5-0.9-2.7-0.9
				c-0.4,0-0.7,0-1,0.1l-0.8,0.2l-0.2,0.1L250.9,86.8z"/>
		</g>
		<g>
			<g>
				<g>
					<circle class="st1" cx="48.2" cy="51.4" r="47.2"/>
				</g>
				<g>
					<polygon class="st0" points="26.2,52.6 38.8,65.1 70.7,33.4 77.8,40.4 38.8,79.3 19.3,59.7 					"/>
				</g>
			</g>
		</g>
		<g>
			<g>
				<g>
					<path class="st0" d="M340.7,9.4H340V6.6h-1.4V6.1h3.5v0.5h-1.4V9.4z M343.2,9.4h-0.7V6.1h1l1.1,2.6l1-2.6h1v3.3h-0.7V6.6
						L345,9.4h-0.6l-1.1-2.8V9.4z"/>
				</g>
				<path class="st0" d="M342.4,13.7c-3.4,0-6.1-2.8-6.1-6.1s2.8-6.1,6.1-6.1c3.4,0,6.1,2.8,6.1,6.1S345.8,13.7,342.4,13.7z
					 M342.4,2.2c-3,0-5.4,2.4-5.4,5.4c0,3,2.4,5.4,5.4,5.4c3,0,5.4-2.4,5.4-5.4C347.8,4.6,345.4,2.2,342.4,2.2z"/>
			</g>
			<g>
				<path class="st0" d="M125.5,54.6h-11.1l-5.1-44.8h9.9l3,33.7h0.1l17-33.7h10.2L125.5,54.6z"/>
				<path class="st0" d="M150.6,40.5c-0.1,0.8-0.1,1.4-0.1,1.9c0,3.8,2.3,6.3,7.2,6.3c3.6,0,5.3-2.4,6.7-4.5h8.9
					c-2.8,7.3-7.5,11.2-16.8,11.2c-8.7,0-14.4-5-14.4-14.2c0-10.4,6.8-20,17.9-20c9,0,15.1,4.8,15.1,14.2c0,1.8-0.2,3.5-0.5,5.1
					H150.6z M166.5,34.9c0-3.3-0.8-6.9-6-6.9c-5,0-7.5,3.3-8.9,6.9H166.5z"/>
				<path class="st0" d="M183.5,22.1h8.5l-1.3,5.8l0.1,0.1c2-4.5,6.4-6.8,11.2-6.8c0.9,0,1.8,0.1,2.8,0.2l-1.8,8.7
					c-1.3-0.3-2.5-0.6-3.8-0.6c-6.8,0-9.3,5.1-10.5,10.7l-3,14.4h-8.9L183.5,22.1z"/>
				<path class="st0" d="M208,22.1h9l-6.9,32.5h-9L208,22.1z M218,17.1h-9l1.6-7.3h9L218,17.1z"/>
				<path class="st0" d="M224.8,28.1h-5.3l1.3-6h5.3c1.8-8.3,3.3-12.7,12.6-12.7c1.9,0,3.9,0.2,5.8,0.5l-1.4,6.4
					c-0.9-0.1-1.9-0.2-2.9-0.2c-4.4,0-4.3,2.3-5.3,6h6.3l-1.3,6h-6.4l-5.6,26.5h-8.9L224.8,28.1z"/>
				<path class="st0" d="M246.4,22.1h9l-6.9,32.5h-9L246.4,22.1z M256.4,17.1h-9l1.6-7.3h9L256.4,17.1z"/>
				<path class="st0" d="M265.7,40.5c-0.1,0.8-0.1,1.4-0.1,1.9c0,3.8,2.3,6.3,7.2,6.3c3.6,0,5.3-2.4,6.7-4.5h8.9
					c-2.8,7.3-7.5,11.2-16.8,11.2c-8.7,0-14.4-5-14.4-14.2c0-10.4,6.8-20,17.9-20c9,0,15.1,4.8,15.1,14.2c0,1.8-0.2,3.5-0.5,5.1
					H265.7z M281.5,34.9c0-3.3-0.8-6.9-6-6.9c-5,0-7.5,3.3-8.9,6.9H281.5z"/>
				<path class="st0" d="M315.4,50.6l-0.1-0.1c-2,3.5-5.8,5-9.7,5c-7.8,0-12.4-5-12.4-12.8c0-10.7,5.7-21.4,17.7-21.4
					c3.8,0,7.7,1.6,9.1,5.2h0.1l3.6-16.7h8.9l-9.5,44.8h-8.6L315.4,50.6z M302.1,41.5c0,3.9,2.1,7.2,6.3,7.2c6.7,0,9.8-8.2,9.8-13.7
					c0-4.1-2.1-7-6.4-7C305.1,28,302.1,35.8,302.1,41.5z"/>
			</g>
		</g>
	</g>
</g>
</svg>
