<svg xmlns="http://www.w3.org/2000/svg" width="85.93" height="24.01" viewBox="0 0 85.93 24.01"><defs><style>.cls-1{fill:#fff;}.cls-2{fill:#5178bb;}</style></defs><g id="Layer_2" data-name="Layer 2"><g id="Layer_1-2" data-name="Layer 1"><path class="cls-1" d="M32.32,22.06H31l-.2-1.29H28.83l-.59,1.29H26.78l3-6h1.41ZM29.2,19.91h1.44l-.35-2.38h0Z"/><path class="cls-1" d="M36.84,22.06H35.63l.08-.45a2.31,2.31,0,0,1-1.36.5,1.08,1.08,0,0,1-1.19-1.17v-.22c0-.07,0-.15,0-.22l.08-.47.27-1.91h1.21l-.3,2a2.46,2.46,0,0,0,0,.37c0,.13,0,.23,0,.3,0,.3.12.45.35.45a1.56,1.56,0,0,0,1.08-.6l.4-2.57h1.21Z"/><path class="cls-1" d="M40.11,18.1H41l-.15.87H40l-.2,1-.07.38a1.23,1.23,0,0,0,0,.32c0,.27.13.42.37.42a1.6,1.6,0,0,0,.74-.27v1.06a3.34,3.34,0,0,1-.54.2,1.57,1.57,0,0,1-.49.05,1.29,1.29,0,0,1-.94-.35,1.24,1.24,0,0,1-.35-.92v-.17a.34.34,0,0,1,0-.17,1.29,1.29,0,0,1,0-.25c0-.1,0-.22.08-.37l.17-.91h-.84l.15-.87h.84l.15-.82h1.24Z"/><path class="cls-1" d="M45.67,20.77a2.62,2.62,0,0,1-.49.72,2.58,2.58,0,0,1-.75.47,2.38,2.38,0,0,1-.94.17,2.16,2.16,0,0,1-.81-.15,2.35,2.35,0,0,1-.67-.39,1.69,1.69,0,0,1-.44-.6,1.78,1.78,0,0,1-.15-.74,1.83,1.83,0,0,1,.2-.84,2,2,0,0,1,.51-.69,2.61,2.61,0,0,1,.77-.47,2.25,2.25,0,0,1,.94-.17,2.17,2.17,0,0,1,.82.14,2,2,0,0,1,.64.4,2,2,0,0,1,.42.59,1.81,1.81,0,0,1,.15.74A2.88,2.88,0,0,1,45.67,20.77Zm-1.31-1.51a.84.84,0,0,0-.62-.24.86.86,0,0,0-.42.09,1.13,1.13,0,0,0-.34.28,1.06,1.06,0,0,0-.23.42,1.53,1.53,0,0,0-.07.49.79.79,0,0,0,.25.62.81.81,0,0,0,.59.25.84.84,0,0,0,.42-.1,3.24,3.24,0,0,0,.35-.27,1.2,1.2,0,0,0,.22-.42,1.63,1.63,0,0,0,.07-.5A.86.86,0,0,0,44.36,19.26Z"/><path class="cls-1" d="M49.4,19.31l-.12,0c-.25-.1-.47-.17-.62-.22a1.32,1.32,0,0,0-.42-.07c-.22,0-.32.05-.32.17s0,.07,0,.1,0,.07.07.1a.54.54,0,0,0,.2.14,3.54,3.54,0,0,1,.34.25,2.78,2.78,0,0,1,.6.57.94.94,0,0,1,.17.57,1.14,1.14,0,0,1-.12.49,1.35,1.35,0,0,1-.32.4,1.56,1.56,0,0,1-.5.25,2.44,2.44,0,0,1-.62.1,3,3,0,0,1-.69-.08,4.92,4.92,0,0,1-.74-.27l.17-.87a2.91,2.91,0,0,0,1.16.33,1,1,0,0,0,.3,0,.2.2,0,0,0,.1-.18c0-.1-.1-.22-.3-.37l-.34-.24a2.76,2.76,0,0,1-.6-.55.94.94,0,0,1-.17-.57,1.18,1.18,0,0,1,.12-.49,1.76,1.76,0,0,1,.33-.4,1.42,1.42,0,0,1,.49-.25,3.09,3.09,0,0,1,.62-.09,2.79,2.79,0,0,1,.64.07,3.75,3.75,0,0,1,.67.27Z"/><path class="cls-1" d="M51.68,18.55a2.17,2.17,0,0,1,.67-.4,1.77,1.77,0,0,1,.71-.12,1.13,1.13,0,0,1,.85.29,1.23,1.23,0,0,1,.29.87v.22c0,.07,0,.17,0,.25l-.08.49L53.83,22H52.59l.33-2.17,0-.33v-.19c0-.28-.13-.4-.35-.4a1.65,1.65,0,0,0-1.06.54l-.4,2.58H49.92l.89-5.94h1.24Z"/><path class="cls-1" d="M59.27,20.77a2.62,2.62,0,0,1-.49.72A2.58,2.58,0,0,1,58,22a2.38,2.38,0,0,1-.94.17,2.16,2.16,0,0,1-.81-.15,2.35,2.35,0,0,1-.67-.39,1.69,1.69,0,0,1-.44-.6,1.78,1.78,0,0,1-.15-.74,1.83,1.83,0,0,1,.2-.84,2,2,0,0,1,.51-.69,2.61,2.61,0,0,1,.77-.47,2.21,2.21,0,0,1,.92-.17,2.12,2.12,0,0,1,.81.14,1.87,1.87,0,0,1,1.07,1,2,2,0,0,1,.14.74A1.66,1.66,0,0,1,59.27,20.77ZM58,19.26a.84.84,0,0,0-.62-.24.86.86,0,0,0-.42.09,1.13,1.13,0,0,0-.34.28,1.06,1.06,0,0,0-.23.42,1.53,1.53,0,0,0-.07.49.79.79,0,0,0,.25.62.81.81,0,0,0,.59.25.84.84,0,0,0,.42-.1,3.24,3.24,0,0,0,.35-.27,1.2,1.2,0,0,0,.22-.42,1.65,1.65,0,0,0,.1-.5A1,1,0,0,0,58,19.26Z"/><path class="cls-1" d="M62.24,18.1a2.6,2.6,0,0,1,.39-.05.65.65,0,0,0,.2,0H63a2.51,2.51,0,0,1,.75.12,1.44,1.44,0,0,1,.57.35,1.84,1.84,0,0,1,.37.54,1.76,1.76,0,0,1,.12.69,2.33,2.33,0,0,1-.2.94,2,2,0,0,1-.54.74,2.44,2.44,0,0,1-.82.5,2.78,2.78,0,0,1-1,.17.91.91,0,0,1-.27,0,1.66,1.66,0,0,1-.28,0l-.29,2H60.19l.66-4.48c-.12.1-.22.18-.32.28a3,3,0,0,0-.25.24l-.19.25a.16.16,0,0,1-.15.08s-.08,0-.08-.1a1.39,1.39,0,0,1,.2-.5l.15-.22a2.23,2.23,0,0,1,.42-.47,4.51,4.51,0,0,1,.37-.32l.22-1.44h1.22Zm-.45,3a.54.54,0,0,0,.2,0h.17a1.34,1.34,0,0,0,1-.37,1.39,1.39,0,0,0,.37-1,.87.87,0,0,0-.22-.64.9.9,0,0,0-.67-.22.86.86,0,0,0-.24,0l-.2.05,0,0Z"/><circle class="cls-2" cx="11.67" cy="12.34" r="11.67"/><polygon class="cls-1" points="6.23 12.64 9.35 15.73 17.23 7.89 18.99 9.62 9.35 19.24 4.53 14.39 6.23 12.64"/><path class="cls-1" d="M84,2h-.18V1.26h-.34V1.14h.86v.12H84Zm.62,0h-.18V1.14h.25l.27.64.25-.64h.25V2h-.18V1.26L85.06,2h-.15l-.27-.69V2Z"/><path class="cls-1" d="M84.42,3a1.52,1.52,0,0,1-1.51-1.51,1.51,1.51,0,0,1,3,0A1.52,1.52,0,0,1,84.42,3Zm0-2.85a1.34,1.34,0,1,0,0,2.67,1.32,1.32,0,0,0,1.33-1.33A1.33,1.33,0,0,0,84.42.17Z"/><path class="cls-1" d="M30.79,13.13H28L26.78,2.05h2.45L30,10.39h0L34.2,2.05h2.52Z"/><path class="cls-1" d="M37,9.64a4.38,4.38,0,0,0,0,.47c0,.94.57,1.56,1.78,1.56a1.92,1.92,0,0,0,1.65-1.11h2.2a3.91,3.91,0,0,1-4.15,2.77,3.25,3.25,0,0,1-3.56-3.51c0-2.57,1.68-4.95,4.43-4.95,2.22,0,3.73,1.19,3.73,3.51a7.09,7.09,0,0,1-.12,1.26Zm3.93-1.38c0-.82-.19-1.71-1.48-1.71a2.3,2.3,0,0,0-2.2,1.71Z"/><path class="cls-1" d="M45.13,5.09h2.1l-.32,1.44,0,0A2.92,2.92,0,0,1,49.7,4.87c.22,0,.45,0,.69,0L50,7.07A4.38,4.38,0,0,0,49,6.92c-1.68,0-2.3,1.26-2.6,2.65l-.74,3.56h-2.2Z"/><path class="cls-1" d="M51.19,5.09h2.22l-1.71,8H49.48Zm2.47-1.23H51.43l.4-1.81h2.22Z"/><path class="cls-1" d="M55.34,6.58H54l.32-1.49h1.31C56.11,3,56.48,2,58.78,2a8.64,8.64,0,0,1,1.43.13l-.35,1.58a5.39,5.39,0,0,0-.71-.05c-1.09,0-1.07.57-1.31,1.48h1.55l-.32,1.49H57.49l-1.38,6.55h-2.2Z"/><path class="cls-1" d="M60.68,5.09h2.23l-1.71,8H59Zm2.47-1.23H60.93l.39-1.81h2.23Z"/><path class="cls-1" d="M65.45,9.64a4.38,4.38,0,0,0,0,.47c0,.94.57,1.56,1.78,1.56a1.92,1.92,0,0,0,1.65-1.11h2.21a3.93,3.93,0,0,1-4.16,2.77,3.25,3.25,0,0,1-3.56-3.51c0-2.57,1.68-4.95,4.43-4.95,2.22,0,3.73,1.19,3.73,3.51a7.09,7.09,0,0,1-.12,1.26Zm3.91-1.38c0-.82-.2-1.71-1.48-1.71a2.29,2.29,0,0,0-2.2,1.71Z"/><path class="cls-1" d="M77.74,12.14l0,0a2.67,2.67,0,0,1-2.4,1.23,2.88,2.88,0,0,1-3.07-3.16c0-2.65,1.41-5.29,4.38-5.29a2.3,2.3,0,0,1,2.25,1.28h0l.89-4.13H82L79.65,13.13H77.52ZM74.45,9.89A1.58,1.58,0,0,0,76,11.67c1.66,0,2.42-2,2.42-3.39a1.52,1.52,0,0,0-1.58-1.73C75.2,6.55,74.45,8.48,74.45,9.89Z"/></g></g></svg>