<?xml version="1.0" encoding="utf-8"?>
<!-- Generator: Adobe Illustrator 24.2.1, SVG Export Plug-In . SVG Version: 6.00 Build 0)  -->
<svg version="1.1" id="Layer_1" xmlns="http://www.w3.org/2000/svg" xmlns:xlink="http://www.w3.org/1999/xlink" x="0px" y="0px"
	 viewBox="0 0 500 167" style="enable-background:new 0 0 500 167;" xml:space="preserve">
<style type="text/css">
	.st0{fill:#FFFFFF;}
	.st1{fill:#5178BB;}
</style>
<g>
	<g>
		<g>
			<path class="st0" d="M188.6,143.5h-7.8l-1.1-7.4h-11.1l-3.4,7.4h-8.4l17.5-34.6h8.1L188.6,143.5z M170.6,131.1h8.3l-2-13.7h-0.1
				L170.6,131.1z"/>
			<path class="st0" d="M214.6,143.5h-7l0.4-2.6c-1.1,1-2.4,1.7-3.8,2.1c-1.4,0.6-2.7,0.7-4,0.7c-2.1,0-3.8-0.6-5-1.7
				c-1.1-1.1-1.8-2.8-1.8-5c0-0.4,0-0.9,0-1.3s0.1-0.9,0.1-1.3l0.4-2.7l1.6-11h7l-1.7,11.7c-0.1,0.7-0.3,1.4-0.3,2.1
				s-0.1,1.3-0.1,1.7c0,1.7,0.7,2.6,2,2.6c2,0,4.1-1.1,6.3-3.4l2.3-14.8h7L214.6,143.5z"/>
			<path class="st0" d="M233.4,120.7h5.3l-0.9,5h-5.3l-1.1,5.7l-0.4,2.1c-0.1,0.7-0.1,1.3-0.1,1.8c0,1.6,0.7,2.4,2.1,2.4
				c1.1,0,2.6-0.6,4.3-1.6v6.1c-1.1,0.6-2.3,0.9-3.1,1.1c-0.9,0.3-1.8,0.3-2.8,0.3c-2.3,0-4.1-0.7-5.4-2c-1.3-1.3-2-3.1-2-5.3
				c0-0.3,0-0.7,0-1s0-0.7,0.1-1c0-0.4,0.1-0.9,0.3-1.4c0.1-0.6,0.3-1.3,0.4-2.1l1-5.3h-4.8l0.9-5h4.8l0.9-4.7h7.1L233.4,120.7z"/>
			<path class="st0" d="M265.4,136.1c-0.7,1.6-1.7,3-2.8,4.1s-2.7,2-4.3,2.7c-1.7,0.7-3.4,1-5.4,1c-1.7,0-3.3-0.3-4.7-0.9
				c-1.4-0.6-2.7-1.3-3.8-2.3c-1.1-1-2-2.1-2.6-3.4c-0.6-1.3-0.9-2.7-0.9-4.3c0-1.7,0.4-3.4,1.1-4.8c0.7-1.6,1.7-2.8,3-4
				c1.3-1.1,2.7-2,4.4-2.7c1.7-0.7,3.4-1,5.4-1c1.7,0,3.3,0.3,4.7,0.9s2.7,1.3,3.7,2.3c1,1,1.8,2.1,2.4,3.4c0.6,1.3,0.9,2.7,0.9,4.3
				C266.4,132.8,266.1,134.5,265.4,136.1z M257.8,127.4c-0.9-0.9-2-1.4-3.6-1.4c-0.9,0-1.7,0.1-2.4,0.6c-0.7,0.4-1.4,0.9-2,1.6
				c-0.6,0.7-1,1.4-1.3,2.4c-0.3,0.9-0.4,1.8-0.4,2.8c0,1.4,0.4,2.6,1.4,3.6c1,1,2.1,1.4,3.4,1.4c0.9,0,1.7-0.1,2.4-0.6
				c0.7-0.4,1.4-1,2-1.6c0.6-0.7,1-1.4,1.3-2.4c0.3-0.9,0.4-1.8,0.4-2.8C259.1,129.5,258.7,128.3,257.8,127.4z"/>
			<path class="st0" d="M286.9,127.7l-0.7-0.3c-1.4-0.6-2.7-1-3.6-1.3c-0.9-0.3-1.7-0.4-2.4-0.4c-1.3,0-1.8,0.3-1.8,1
				c0,0.3,0,0.4,0.1,0.6c0.1,0.1,0.1,0.4,0.4,0.6c0.3,0.3,0.6,0.6,1.1,0.9c0.6,0.3,1.1,0.9,2,1.4c1.6,1.1,2.7,2.3,3.4,3.3
				c0.7,1,1,2,1,3.3c0,1-0.3,2-0.7,2.8c-0.4,0.9-1,1.6-1.8,2.3c-0.9,0.6-1.7,1.1-2.8,1.4s-2.3,0.6-3.6,0.6c-1.4,0-2.8-0.1-4-0.4
				c-1.1-0.3-2.7-0.9-4.3-1.6l1-5c2.8,1.3,5,1.8,6.7,1.8c0.7,0,1.3-0.1,1.7-0.3c0.4-0.3,0.6-0.6,0.6-1c0-0.6-0.6-1.3-1.7-2.1l-2-1.4
				c-1.6-1.1-2.7-2.1-3.4-3.1c-0.7-1-1-2-1-3.3c0-1,0.3-2,0.7-2.8c0.4-0.9,1.1-1.6,1.8-2.3c0.9-0.6,1.7-1.1,2.8-1.4
				c1.1-0.3,2.3-0.6,3.6-0.6c1.3,0,2.4,0.1,3.7,0.4c1.1,0.3,2.4,0.9,3.8,1.6L286.9,127.7z"/>
			<path class="st0" d="M300,123.3c1.1-1,2.4-1.7,3.8-2.3s2.7-0.7,4.1-0.7c2.1,0,3.7,0.6,4.8,1.7c1.1,1.1,1.7,2.8,1.7,5
				c0,0.4,0,0.9,0,1.3c0,0.4-0.1,1-0.1,1.4l-0.4,2.8l-1.6,10.8h-7.1l1.8-12.5l0.3-1.8c0-0.1,0-0.4,0-0.6s0-0.4,0-0.6
				c0-1.6-0.7-2.3-2-2.3c-1.7,0-3.8,1-6.1,3.1l-2.3,14.8h-7.1l5.1-34.1h7.1L300,123.3z"/>
			<path class="st0" d="M343.6,136.1c-0.7,1.6-1.7,3-2.8,4.1s-2.7,2-4.3,2.7c-1.7,0.7-3.4,1-5.4,1c-1.7,0-3.3-0.3-4.7-0.9
				s-2.7-1.3-3.8-2.3c-1.1-1-2-2.1-2.6-3.4c-0.6-1.3-0.9-2.7-0.9-4.3c0-1.7,0.4-3.4,1.1-4.8c0.7-1.6,1.7-2.8,3-4
				c1.3-1.1,2.7-2,4.4-2.7c1.7-0.7,3.4-1,5.3-1c1.7,0,3.3,0.3,4.7,0.9s2.7,1.3,3.7,2.3c1,1,1.8,2.1,2.4,3.4c0.6,1.3,0.9,2.7,0.9,4.3
				C344.8,132.8,344.3,134.5,343.6,136.1z M336.1,127.4c-0.9-0.9-2-1.4-3.6-1.4c-0.9,0-1.7,0.1-2.4,0.6c-0.7,0.4-1.4,0.9-2,1.6
				c-0.6,0.7-1,1.4-1.3,2.4c-0.3,0.9-0.4,1.8-0.4,2.8c0,1.4,0.4,2.6,1.4,3.6c1,1,2.1,1.4,3.4,1.4c0.9,0,1.7-0.1,2.4-0.6
				c0.7-0.4,1.4-1,2-1.6c0.6-0.7,1-1.4,1.3-2.4c0.3-0.9,0.6-1.8,0.6-2.8C337.4,129.5,336.9,128.3,336.1,127.4z"/>
			<path class="st0" d="M360.7,120.7c0.7-0.1,1.6-0.3,2.3-0.3c0.4,0,0.7,0,1.1-0.1c0.3,0,0.7,0,1,0c1.6,0,3,0.3,4.3,0.7
				c1.3,0.4,2.4,1.1,3.3,2c0.9,0.9,1.6,1.8,2.1,3.1c0.6,1.3,0.7,2.6,0.7,4c0,1.8-0.4,3.7-1.1,5.4c-0.7,1.7-1.8,3.1-3.1,4.3
				c-1.3,1.3-3,2.1-4.7,2.8c-1.8,0.7-3.7,1-5.8,1c-0.7,0-1.3,0-1.6-0.1c-0.4,0-1-0.1-1.6-0.3l-1.7,11.5h-7l3.8-25.8
				c-0.7,0.6-1.3,1-1.8,1.6s-1.1,1-1.4,1.4l-1.1,1.4c-0.1,0.3-0.4,0.4-0.9,0.4c-0.3,0-0.4-0.1-0.4-0.6c0-0.6,0.4-1.6,1.1-2.8
				c0.3-0.4,0.6-0.9,0.9-1.3c0.3-0.4,0.6-0.9,0.9-1.1c0.4-0.6,1-1.1,1.6-1.6c0.6-0.6,1.3-1.1,2.1-1.8l1.3-8.3h7L360.7,120.7z
				 M358.1,137.9c0.4,0.1,0.9,0.1,1.1,0.1s0.6,0,1,0c2.4,0,4.3-0.7,5.7-2.1c1.4-1.4,2.1-3.4,2.1-5.8c0-1.6-0.4-2.8-1.3-3.7
				c-0.9-0.9-2.1-1.3-3.8-1.3c-0.6,0-1,0-1.4,0.1l-1.1,0.3l-0.3,0.1L358.1,137.9z"/>
		</g>
		<g>
			<g>
				<g>
					<circle class="st1" cx="69.8" cy="87.6" r="67.2"/>
				</g>
				<g>
					<polygon class="st0" points="38.5,89.3 56.4,107.1 101.8,62 111.9,71.9 56.4,127.3 28.6,99.4 					"/>
				</g>
			</g>
		</g>
		<g>
			<g>
				<g>
					<path class="st0" d="M485.9,27.8h-1v-4h-2v-0.7h5v0.7h-2V27.8z M489.5,27.8h-1v-4.7h1.4l1.6,3.7l1.4-3.7h1.4v4.7h-1v-4l-1.3,4
						h-0.9l-1.6-4v4H489.5z"/>
				</g>
				<path class="st0" d="M488.3,33.9c-4.8,0-8.7-4-8.7-8.7s4-8.7,8.7-8.7c4.8,0,8.7,4,8.7,8.7S493.2,33.9,488.3,33.9z M488.3,17.6
					c-4.3,0-7.7,3.4-7.7,7.7s3.4,7.7,7.7,7.7c4.3,0,7.7-3.4,7.7-7.7S492.6,17.6,488.3,17.6z"/>
			</g>
			<g>
				<path class="st0" d="M179.7,92.1h-15.8l-7.3-63.7h14.1l4.3,47.9h0.1l24.2-47.9h14.5L179.7,92.1z"/>
				<path class="st0" d="M215.4,72.1c-0.1,1.1-0.1,2-0.1,2.7c0,5.4,3.3,9,10.2,9c5.1,0,7.5-3.4,9.5-6.4h12.7
					c-4,10.4-10.7,15.9-23.9,15.9c-12.4,0-20.5-7.1-20.5-20.2c0-14.8,9.7-28.5,25.5-28.5c12.8,0,21.5,6.8,21.5,20.2
					c0,2.6-0.3,5-0.7,7.3H215.4z M238.1,64.1c0-4.7-1.1-9.8-8.5-9.8c-7.1,0-10.7,4.7-12.7,9.8H238.1z"/>
				<path class="st0" d="M262.3,45.9h12.1l-1.8,8.3l0.1,0.1c2.8-6.4,9.1-9.7,15.9-9.7c1.3,0,2.6,0.1,4,0.3L290,57.3
					c-1.8-0.4-3.6-0.9-5.4-0.9c-9.7,0-13.2,7.3-14.9,15.2l-4.3,20.5h-12.7L262.3,45.9z"/>
				<path class="st0" d="M297.1,45.9h12.8l-9.8,46.2h-12.8L297.1,45.9z M311.3,38.8h-12.8l2.3-10.4h12.8L311.3,38.8z"/>
				<path class="st0" d="M321,54.4h-7.5l1.8-8.5h7.5c2.6-11.8,4.7-18.1,17.9-18.1c2.7,0,5.5,0.3,8.3,0.7l-2,9.1
					c-1.3-0.1-2.7-0.3-4.1-0.3c-6.3,0-6.1,3.3-7.5,8.5h9l-1.8,8.5h-9.1l-8,37.7h-12.7L321,54.4z"/>
				<path class="st0" d="M351.7,45.9h12.8l-9.8,46.2h-12.8L351.7,45.9z M366,38.8h-12.8l2.3-10.4h12.8L366,38.8z"/>
				<path class="st0" d="M379.2,72.1c-0.1,1.1-0.1,2-0.1,2.7c0,5.4,3.3,9,10.2,9c5.1,0,7.5-3.4,9.5-6.4h12.7
					c-4,10.4-10.7,15.9-23.9,15.9c-12.4,0-20.5-7.1-20.5-20.2c0-14.8,9.7-28.5,25.5-28.5c12.8,0,21.5,6.8,21.5,20.2
					c0,2.6-0.3,5-0.7,7.3H379.2z M401.7,64.1c0-4.7-1.1-9.8-8.5-9.8c-7.1,0-10.7,4.7-12.7,9.8H401.7z"/>
				<path class="st0" d="M449.9,86.4l-0.1-0.1c-2.8,5-8.3,7.1-13.8,7.1c-11.1,0-17.6-7.1-17.6-18.2c0-15.2,8.1-30.4,25.2-30.4
					c5.4,0,11,2.3,12.9,7.4h0.1l5.1-23.8h12.7l-13.5,63.7h-12.2L449.9,86.4z M431,73.5c0,5.5,3,10.2,9,10.2
					c9.5,0,13.9-11.7,13.9-19.5c0-5.8-3-10-9.1-10C435.3,54.3,431,65.4,431,73.5z"/>
			</g>
		</g>
	</g>
</g>
</svg>
