<svg xmlns="http://www.w3.org/2000/svg" width="160" height="160" viewBox="0 0 337.68 337.68"><defs><style>.cls-1{fill:#fff;}.cls-2{fill:#4285f4;}.cls-3{fill:#34a853;}.cls-4{fill:#fabb05;}.cls-5{fill:#e94235;}.cls-6{fill:#5f6368;}</style></defs><g id="Layer_2" data-name="Layer 2"><g id="Stickers"><rect class="cls-1" width="337.68" height="337.68" rx="21.1"/><g id="_192px" data-name=" 192px"><path class="cls-2" d="M239.47,109.33a86.57,86.57,0,0,0-1.34-15.16H170.34V122h39.08a33.5,33.5,0,0,1-14.48,22.38v18h23.19C231.69,149.82,239.47,131.27,239.47,109.33Z"/><path class="cls-3" d="M194.9,144.35c-6.47,4.37-14.79,6.92-24.56,6.92-18.78,0-34.78-12.68-40.5-29.77h-24v18.59a72.14,72.14,0,0,0,64.46,39.74c19.49,0,35.87-6.41,47.78-17.44Z"/><path class="cls-4" d="M127.59,107.69a43.19,43.19,0,0,1,2.26-13.8V75.3h-24a72.29,72.29,0,0,0,0,64.79l24-18.59A43.49,43.49,0,0,1,127.59,107.69Z"/><path class="cls-5" d="M170.34,64.12A39.14,39.14,0,0,1,198,74.94l20.61-20.59a69.36,69.36,0,0,0-48.29-18.79A72.14,72.14,0,0,0,105.88,75.3l24,18.59C135.57,76.8,151.56,64.12,170.34,64.12Z"/></g><path class="cls-6" d="M103.24,217.17h3.31v2.36h.16a4.53,4.53,0,0,1,1.85-2.05,5.32,5.32,0,0,1,2.81-.81,4.9,4.9,0,0,1,1.95.34v3.56a7.24,7.24,0,0,0-2.49-.5,3.68,3.68,0,0,0-2.12.63,4.4,4.4,0,0,0-1.47,1.69,5,5,0,0,0-.53,2.32v8.52h-3.47Z"/><path class="cls-6" d="M118.31,232.63a7.72,7.72,0,0,1-2.93-3,8.88,8.88,0,0,1-1.06-4.36,9.18,9.18,0,0,1,1-4.27,8.2,8.2,0,0,1,2.85-3.13,7.56,7.56,0,0,1,4.16-1.16,8,8,0,0,1,4.21,1.07,6.94,6.94,0,0,1,2.7,2.93,9.18,9.18,0,0,1,.93,4.18,8.45,8.45,0,0,1-.09,1.11H117.79a4.78,4.78,0,0,0,4.85,4.66,4.75,4.75,0,0,0,2.56-.68A5.07,5.07,0,0,0,127,228.1l2.93,1.38a8.55,8.55,0,0,1-3,3.12,8.87,8.87,0,0,1-8.61,0Zm8.36-9.32a4,4,0,0,0-.54-1.68,3.8,3.8,0,0,0-1.43-1.41,4.62,4.62,0,0,0-2.35-.56,4.18,4.18,0,0,0-2.82,1,5.23,5.23,0,0,0-1.59,2.66Z"/><path class="cls-6" d="M130.46,217.17h3.87l4.44,11.59h.13l4.53-11.59h3.78l-6.67,16.06h-3.47Z"/><path class="cls-6" d="M149.18,214.41a2.33,2.33,0,1,1,3.3,0,2.34,2.34,0,0,1-3.3,0Zm-.08,2.76h3.46v16.06H149.1Z"/><path class="cls-6" d="M159.33,232.63a7.72,7.72,0,0,1-2.93-3,9,9,0,0,1-1.05-4.36,9.18,9.18,0,0,1,1-4.27,8,8,0,0,1,2.85-3.13,7.53,7.53,0,0,1,4.16-1.16,8,8,0,0,1,4.2,1.07,7,7,0,0,1,2.71,2.93,9.18,9.18,0,0,1,.93,4.18,7.19,7.19,0,0,1-.1,1.11H158.81a4.89,4.89,0,0,0,1.59,3.44,5.06,5.06,0,0,0,5.83.54A5.13,5.13,0,0,0,168,228.1l2.93,1.38a8.47,8.47,0,0,1-3,3.12,8.87,8.87,0,0,1-8.61,0Zm8.36-9.32a4,4,0,0,0-.53-1.68,3.9,3.9,0,0,0-1.44-1.41,4.61,4.61,0,0,0-2.34-.56,4.15,4.15,0,0,0-2.82,1,5.09,5.09,0,0,0-1.59,2.66Z"/><path class="cls-6" d="M171.71,217.17h3.74l3.25,11.49h.12l3.62-11.49H186l3.59,11.49h.13L193,217.17h3.69l-5.14,16.06h-3.65l-3.68-11.53h-.1l-3.65,11.53h-3.59Z"/><path class="cls-6" d="M207,232a7.21,7.21,0,0,1-1.52-4.87v-10H209v9.48a4.11,4.11,0,0,0,.93,2.93,3.21,3.21,0,0,0,2.44,1,3.75,3.75,0,0,0,2.17-.64,4.13,4.13,0,0,0,1.45-1.72,5.27,5.27,0,0,0,.51-2.3v-8.72h3.46v16.06h-3.27v-2.08h-.19a4.91,4.91,0,0,1-2.05,1.86,6.26,6.26,0,0,1-2.93.72A5.63,5.63,0,0,1,207,232Z"/><path class="cls-6" d="M224.81,232.52a6.58,6.58,0,0,1-2.49-3.1l3.09-1.35A4.35,4.35,0,0,0,227,230a4.22,4.22,0,0,0,2.35.66,4.61,4.61,0,0,0,2.17-.46,1.45,1.45,0,0,0,.88-1.37,1.56,1.56,0,0,0-.75-1.38,7.73,7.73,0,0,0-2.34-.89l-1.92-.47a6.85,6.85,0,0,1-3.18-1.67,4,4,0,0,1-1.26-3,3.92,3.92,0,0,1,.84-2.49,5.33,5.33,0,0,1,2.25-1.65,8,8,0,0,1,3.09-.58,8.37,8.37,0,0,1,3.93.89,5.35,5.35,0,0,1,2.46,2.6l-3,1.32a3.4,3.4,0,0,0-3.34-1.85,3.72,3.72,0,0,0-2,.47,1.39,1.39,0,0,0-.78,1.23,1.43,1.43,0,0,0,.6,1.18,5.12,5.12,0,0,0,1.76.77l2.36.6a7.59,7.59,0,0,1,3.58,1.81,4.07,4.07,0,0,1,1.21,3,4.32,4.32,0,0,1-.87,2.67,5.55,5.55,0,0,1-2.38,1.77,8.55,8.55,0,0,1-3.33.63A7.85,7.85,0,0,1,224.81,232.52Z"/><path class="cls-6" d="M64.72,279.55a11.78,11.78,0,0,1-4.49-4.61,14,14,0,0,1,0-13,11.78,11.78,0,0,1,4.49-4.61,13.42,13.42,0,0,1,13,0A12,12,0,0,1,82.24,262a13.91,13.91,0,0,1,0,13,11.75,11.75,0,0,1-4.48,4.61,13.49,13.49,0,0,1-13,0Zm10.2-4.06a7.16,7.16,0,0,0,2.72-2.79,8.71,8.71,0,0,0,1-4.28,8.59,8.59,0,0,0-1-4.25,7.26,7.26,0,0,0-6.4-3.73,7.29,7.29,0,0,0-3.69,1,7.19,7.19,0,0,0-2.71,2.76,8.49,8.49,0,0,0-1,4.25,8.6,8.6,0,0,0,1,4.28,7.14,7.14,0,0,0,2.71,2.79,7.55,7.55,0,0,0,7.37,0Z"/><path class="cls-6" d="M87.67,256.38h5v3.16h.23a8,8,0,0,1,3.1-2.81,9,9,0,0,1,4.37-1.11c2.93,0,5.15.86,6.68,2.58a10.14,10.14,0,0,1,2.29,7v15.26h-5.19V265.92a5.51,5.51,0,0,0-1.4-4.16,5.37,5.37,0,0,0-3.85-1.32,5.27,5.27,0,0,0-3.12,1A6.45,6.45,0,0,0,93.62,264a7.94,7.94,0,0,0-.76,3.45v13H87.67Z"/><path class="cls-6" d="M133.25,278.91a17.67,17.67,0,0,1,0-30.7,17.57,17.57,0,0,1,8.88-2.32,18.57,18.57,0,0,1,7.14,1.37,15.2,15.2,0,0,1,5.52,3.83l-3.68,3.68a11.25,11.25,0,0,0-4-2.83,13.08,13.08,0,0,0-11.17.56,11.77,11.77,0,0,0-4.53,4.44,13.72,13.72,0,0,0,0,13.23,11.77,11.77,0,0,0,4.53,4.44,12.42,12.42,0,0,0,14.83-1.75,8.92,8.92,0,0,0,1.78-2.59,11.42,11.42,0,0,0,1-3.4H142.08v-4.73h16.49a15.35,15.35,0,0,1,.24,2.74,19.31,19.31,0,0,1-1,6.17,13.15,13.15,0,0,1-3.17,5.12,16.42,16.42,0,0,1-12.52,5.06A17.67,17.67,0,0,1,133.25,278.91Z"/><path class="cls-6" d="M167.9,279.55a11.71,11.71,0,0,1-4.49-4.61,14,14,0,0,1,0-13,11.71,11.71,0,0,1,4.49-4.61,13.4,13.4,0,0,1,13,0,12,12,0,0,1,4.49,4.63,13.91,13.91,0,0,1,0,13,11.78,11.78,0,0,1-4.49,4.61,13.47,13.47,0,0,1-13,0Zm10.2-4.06a7.23,7.23,0,0,0,2.72-2.79,8.71,8.71,0,0,0,1-4.28,8.59,8.59,0,0,0-1-4.25,7.34,7.34,0,0,0-12.81,0,8.59,8.59,0,0,0-1,4.25,8.71,8.71,0,0,0,1,4.28,7.23,7.23,0,0,0,2.72,2.79,7.55,7.55,0,0,0,7.37,0Z"/><path class="cls-6" d="M195.6,279.55a11.78,11.78,0,0,1-4.49-4.61,14.06,14.06,0,0,1,0-13,11.78,11.78,0,0,1,4.49-4.61,13.42,13.42,0,0,1,13,0,12,12,0,0,1,4.49,4.63,14,14,0,0,1,0,13,11.78,11.78,0,0,1-4.49,4.61,13.49,13.49,0,0,1-13,0Zm10.21-4.06a7.2,7.2,0,0,0,2.71-2.79,8.6,8.6,0,0,0,1-4.28,8.49,8.49,0,0,0-1-4.25,7.34,7.34,0,0,0-12.8,0,8.49,8.49,0,0,0-1,4.25,8.6,8.6,0,0,0,1,4.28,7.16,7.16,0,0,0,2.72,2.79,7.55,7.55,0,0,0,7.37,0Z"/><path class="cls-6" d="M222.06,289.4a10,10,0,0,1-3.9-4.82l4.86-2a7.19,7.19,0,0,0,11.55,2.17,8.06,8.06,0,0,0,1.87-5.67v-2.22h-.28A8.05,8.05,0,0,1,233,279.5a10,10,0,0,1-4.51,1,10.8,10.8,0,0,1-5.62-1.54,11.12,11.12,0,0,1-4.13-4.38,14.4,14.4,0,0,1,0-13,11.31,11.31,0,0,1,4.13-4.4,10.65,10.65,0,0,1,5.62-1.57,9.91,9.91,0,0,1,4.49,1,8.37,8.37,0,0,1,3.17,2.7h.28v-2.93h5v22.77a13.71,13.71,0,0,1-1.51,6.68,10,10,0,0,1-4.23,4.18,13.28,13.28,0,0,1-6.26,1.42A12.52,12.52,0,0,1,222.06,289.4Zm10.88-14.56a6.58,6.58,0,0,0,2.55-2.65,8.56,8.56,0,0,0,.95-4.12,7.67,7.67,0,0,0-2-5.65,6.74,6.74,0,0,0-5-2,7.12,7.12,0,0,0-3.54.91,6.55,6.55,0,0,0-2.56,2.63,9.59,9.59,0,0,0,0,8.28,6.55,6.55,0,0,0,2.56,2.63,7.12,7.12,0,0,0,3.54.91A7,7,0,0,0,232.94,274.84Z"/><path class="cls-6" d="M246.55,246.65h5.19v33.82h-5.19Z"/><path class="cls-6" d="M261.67,279.57a11.67,11.67,0,0,1-4.39-4.56,13.46,13.46,0,0,1-1.58-6.54,13.7,13.7,0,0,1,1.53-6.4,12.13,12.13,0,0,1,4.28-4.7,11.36,11.36,0,0,1,6.23-1.75,12,12,0,0,1,6.31,1.61,10.49,10.49,0,0,1,4.06,4.39,13.84,13.84,0,0,1,1.4,6.28,11.38,11.38,0,0,1-.15,1.66H260.89a7.35,7.35,0,0,0,2.39,5.17,7.25,7.25,0,0,0,4.89,1.82,7.12,7.12,0,0,0,3.85-1,7.48,7.48,0,0,0,2.62-2.76l4.39,2.08a13,13,0,0,1-4.44,4.68,12.2,12.2,0,0,1-6.56,1.7A12.36,12.36,0,0,1,261.67,279.57Zm12.55-14a6.19,6.19,0,0,0-.81-2.53,5.79,5.79,0,0,0-2.15-2.1,6.77,6.77,0,0,0-3.52-.85,6.24,6.24,0,0,0-4.22,1.49,7.69,7.69,0,0,0-2.39,4Z"/></g></g></svg>